<svg xmlns="http://www.w3.org/2000/svg" version="1.1" viewBox="40.96 366.592 940.032 315.392" style="max-height: 500px" width="940.032" height="315.392">
<path transform="translate(0,0)" fill="#121212" d="M0 0 C337.92 0 675.84 0 1024 0 C1024 337.92 1024 675.84 1024 1024 C686.08 1024 348.16 1024 0 1024 C0 686.08 0 348.16 0 0 Z"/>
<path transform="translate(106.63943481445313,397.8528289794922)" fill="#2F7FE6" d="M0 0 C0.65396283 -0.00367669 1.30792566 -0.00735338 1.98170555 -0.01114148 C4.16545461 -0.02212385 6.34915599 -0.02601286 8.53292847 -0.02983093 C10.10200652 -0.03609977 11.6710831 -0.04274694 13.24015808 -0.04974365 C18.38705419 -0.07073882 23.53395044 -0.0811427 28.68087769 -0.09111023 C30.4565622 -0.09515967 32.23224656 -0.09927665 34.00793076 -0.10346031 C42.35281879 -0.12250305 50.69769804 -0.13673526 59.04260361 -0.14507228 C68.65695363 -0.15483759 78.27107298 -0.18114249 87.88534176 -0.22157317 C95.32844231 -0.25179309 102.77147696 -0.26654677 110.21463764 -0.26985329 C114.65446845 -0.27219731 119.0940526 -0.28107277 123.53381729 -0.30631447 C127.71506945 -0.329703 131.89591441 -0.33378548 136.07721519 -0.32355309 C137.60454226 -0.3230602 139.13189011 -0.32930696 140.65915489 -0.34310913 C153.81688037 -0.4552825 163.52373237 1.43717998 173.19650269 10.77217102 C179.12381452 17.27723527 182.60564549 23.89567989 182.6212616 32.79333496 C182.62508714 33.44800336 182.62891269 34.10267175 182.63285416 34.77717859 C182.64314435 36.96333604 182.63919962 39.14922888 182.63522339 41.33540344 C182.63957223 42.90610496 182.64475596 44.47680436 182.65071106 46.04750061 C182.66409786 50.31016064 182.66467979 54.57273197 182.66214776 58.83540893 C182.66107723 62.39868516 182.66596382 65.96194352 182.67075318 69.52521592 C182.68184855 77.9373819 182.68228645 86.34950322 182.67623901 94.76167297 C182.67020657 103.42477764 182.68249158 112.08771959 182.70380908 120.7507965 C182.72145969 128.19898548 182.72742076 135.64712285 182.72417134 143.09533197 C182.7223629 147.53898402 182.72495011 151.98252016 182.73888588 156.42615318 C182.75151498 160.60983026 182.74947236 164.79325525 182.73647499 168.97692871 C182.73412019 170.50627543 182.73680427 172.03564016 182.74509811 173.5649662 C182.81412749 187.29138132 181.16584289 196.93904027 171.54415894 207.05732727 C162.03345684 216.10690442 151.80646553 216.73625316 139.23751831 216.66474915 C137.62666697 216.67017841 136.0158206 216.67730556 134.40498352 216.68598938 C130.0557441 216.70413021 125.7068868 216.6971937 121.35764122 216.68447304 C116.79126381 216.6742972 112.22491761 216.68375138 107.65853882 216.6900177 C99.99226042 216.69728082 92.3261365 216.68774157 84.65988159 216.6686554 C75.81540625 216.64688921 66.97129984 216.65394153 58.12683344 216.67596102 C50.51291846 216.69415319 42.89911409 216.69665473 35.28518438 216.68620634 C30.74657494 216.67999234 26.20813851 216.67907781 21.66954041 216.69235229 C17.40116801 216.70396594 13.13326809 216.69578525 8.86494637 216.67277527 C7.30496566 216.66751746 5.74494472 216.66895138 4.18498039 216.67782593 C-8.69256221 216.74429266 -17.84618116 214.8465808 -27.36990356 205.78779602 C-33.96763109 198.11126623 -36.75352374 189.69910328 -36.77987671 179.72879028 C-36.78558685 178.43217468 -36.791297 177.13555908 -36.79718018 175.7996521 C-36.7984254 174.36967478 -36.79955052 172.93969735 -36.80056763 171.50971985 C-36.80519892 169.99813212 -36.810224 168.48654555 -36.81561279 166.97496033 C-36.82871013 162.87347654 -36.83517672 158.7720091 -36.83962345 154.67050767 C-36.84255891 152.10498922 -36.84666465 149.53947519 -36.85112762 146.97395897 C-36.86479648 138.93821923 -36.87446573 130.90248965 -36.87832952 122.86673909 C-36.88280677 113.60729194 -36.90034174 104.34799265 -36.92933011 95.08859044 C-36.95098751 87.92066137 -36.96103598 80.75277377 -36.96237063 73.58481234 C-36.9634159 69.30882143 -36.96926396 65.03296963 -36.98719025 60.75701332 C-37.00374094 56.73093689 -37.00579273 52.70510312 -36.99705124 48.67900467 C-36.99628455 47.20770426 -37.00057458 45.73639043 -37.01050949 44.26512337 C-37.09591005 30.82127498 -35.26975559 20.14084041 -25.75271606 10.17060852 C-17.96878086 2.98308485 -10.57537343 0.03868084 0 0 Z"/>
<path transform="translate(326,465)" fill="#FCFCFC" d="M0 0 C7.92 0 15.84 0 24 0 C26.47714045 5.02887807 28.95064394 10.0592562 31.41577148 15.09399414 C32.25265529 16.80069729 33.09147114 18.50645464 33.93237305 20.21118164 C38.75719012 29.99587618 43.35460658 39.70254747 47 50 C49.14197734 46.78703399 50.78443751 43.45169847 52.44921875 39.98046875 C52.78492386 39.28544754 53.12062897 38.59042633 53.46650696 37.87434387 C54.5422717 35.64640193 55.61506835 33.41704801 56.6875 31.1875 C58.08592392 28.28452033 59.48573383 25.38221333 60.88671875 22.48046875 C61.22887421 21.77155487 61.57102966 21.06264099 61.92355347 20.33224487 C65.21773932 13.52185568 68.60069716 6.75850905 72 0 C79.92 0 87.84 0 96 0 C96 29.37 96 58.74 96 89 C89.73 89 83.46 89 77 89 C76.67 70.19 76.34 51.38 76 32 C73.03 38.6 70.06 45.2 67 52 C65.02813275 56.08356642 63.04945825 60.14501785 61 64.1875 C60.28650391 65.61352539 60.28650391 65.61352539 59.55859375 67.06835938 C56.14174107 73.85825893 56.14174107 73.85825893 55 75 C52.46950598 75.07313567 49.96695163 75.09247527 47.4375 75.0625 C46.37112305 75.05573242 46.37112305 75.05573242 45.28320312 75.04882812 C43.52209987 75.03700864 41.76103964 75.01907263 40 75 C22.51282051 40.53846154 22.51282051 40.53846154 19 30 C18.67 49.47 18.34 68.94 18 89 C12.06 89 6.12 89 0 89 C0 59.63 0 30.26 0 0 Z"/>
<path transform="translate(255,445)" fill="#FCFDFE" d="M0 0 C4.85857844 2.29678253 7.63468979 5.17840611 10 10 C10.90107455 15.63930927 10.26166412 20.21622595 7 25 C3.36244368 28.90371897 1.5919976 30.0527152 -3.6875 30.3125 C-7.68421291 30.97365519 -8.88114031 31.86398162 -11.59765625 34.97265625 C-14.02061381 38.40566599 -16.22855977 41.97405309 -18.44042969 45.54541016 C-21.26457143 49.99029449 -24.33479176 54.26391685 -27.375 58.5625 C-29.06964221 60.98080783 -30.76343096 63.39953812 -32.44824219 65.82470703 C-33.4512988 67.23081691 -34.48690737 68.61450332 -35.55957031 69.96826172 C-38.33908247 73.38164818 -38.33908247 73.38164818 -38.83203125 77.59765625 C-38.55746094 78.39042969 -38.28289062 79.18320312 -38 80 C-37.53277417 85.26203517 -37.33933701 89.60244368 -39.625 94.4375 C-44.10689121 99.27322472 -47.30629601 101.26073911 -53.9375 101.625 C-59.17793521 101.44923385 -62.09484276 100.42169012 -65.73046875 96.64453125 C-68.91066273 92.5249569 -69.23815641 89.12036287 -69 84 C-69.515625 83.773125 -70.03125 83.54625 -70.5625 83.3125 C-74.59362953 81.14189179 -78.17857713 78.33367784 -81.8671875 75.6328125 C-86.16576421 72.30496717 -86.16576421 72.30496717 -91 70 C-92.35003573 70.63215959 -93.68326662 71.30111844 -95 72 C-96.50647918 71.7925862 -98.00695671 71.53865504 -99.5 71.25 C-102.3654236 71.17825891 -104.21157532 71.37086348 -106.48876953 73.18798828 C-109.84019952 76.58262071 -112.69612871 80.36146452 -115.56152344 84.16650391 C-117 86 -117 86 -119.7265625 88.88671875 C-125.59186063 95.11510677 -126.75327982 99.38645809 -126.85546875 107.88671875 C-127.0479783 112.03347843 -128.07312903 114.07312903 -131 117 C-135.60924034 120.43433594 -139.09800916 121.67086775 -144.859375 121.38671875 C-149.50999133 120.54655266 -152.24679254 117.83463529 -155.3125 114.4375 C-158.26167987 110.17757353 -158.51787585 106.04449435 -158 101 C-156.14143173 95.73405656 -153.39685804 93.20604232 -149 90 C-146 89 -146 89 -143.94140625 89.39453125 C-140.87349632 89.93355648 -139.01267821 89.88992392 -136 89 C-131.80684367 85.65150826 -128.65166501 81.13702461 -125.43847656 76.88183594 C-124.09295552 75.12160577 -122.70362797 73.41830939 -121.2734375 71.7265625 C-115.17404466 64.70940532 -115.17404466 64.70940532 -114.375 55.8125 C-114.42306867 51.28202758 -113.79140397 48.92951002 -110.875 45.4375 C-107.13159257 41.78393435 -104.19044205 40.19047415 -98.90625 39.875 C-92.93406926 40.03862139 -89.79108931 42.26005599 -85.53125 46.30859375 C-82.9336236 49.17791066 -82.98316731 50.95782189 -82.953125 54.70703125 C-82.66336384 57.82757928 -82.39916026 59.50888595 -80.40820312 61.95849609 C-78.26968103 63.71018829 -76.08617149 65.21049901 -73.75 66.6875 C-72.98558594 67.22310547 -72.22117187 67.75871094 -71.43359375 68.31054688 C-67.27783354 71.31014116 -67.27783354 71.31014116 -62.36425781 71.69848633 C-60.0100954 71.07816031 -60.0100954 71.07816031 -58 70 C-55.3276379 69.86584528 -52.67749512 69.95681459 -50 70 C-49.76925781 69.31164062 -49.53851563 68.62328125 -49.30078125 67.9140625 C-47.71396365 64.35920986 -45.53281343 61.45040747 -43.1875 58.375 C-38.66169092 52.32810325 -34.31496791 46.17962138 -30.0625 39.9375 C-29.24785278 38.74229736 -29.24785278 38.74229736 -28.41674805 37.52294922 C-27.39829875 36.02482885 -26.38427303 34.52368809 -25.37548828 33.01904297 C-24.50797707 31.74564614 -23.6182994 30.48681679 -22.69873047 29.25048828 C-20.50892922 26.40171523 -20.50892922 26.40171523 -20.23046875 22.9609375 C-20.48441406 22.31382812 -20.73835937 21.66671875 -21 21 C-21.48387159 15.74880341 -21.65498239 11.38553967 -19.375 6.5625 C-13.48853563 0.21131476 -8.48724028 -1.23956714 0 0 Z"/>
<path transform="translate(893,465)" fill="#FBFBFB" d="M0 0 C49.94736842 0 49.94736842 0 59 8 C65.64834221 15.68322567 66.56582537 24.23463464 66 34 C64.55449608 41.66867991 60.99956382 47.97462278 55 53 C44.18159538 59.85097457 31.285162 59.21000277 19 59 C19 68.9 19 78.8 19 89 C12.73 89 6.46 89 0 89 C0 59.63 0 30.26 0 0 Z"/>
<path transform="translate(816,465)" fill="#FCFCFC" d="M0 0 C48.44444444 0 48.44444444 0 57 7 C62.50776413 12.54748358 65.22100174 16.97206715 65.32958984 25.02783203 C65.3239502 25.76114746 65.31831055 26.49446289 65.3125 27.25 C65.30686035 28.00780762 65.3012207 28.76561523 65.29541016 29.54638672 C65.11731737 37.75805122 63.61576452 44.30350121 57.85546875 50.43359375 C46.60740889 59.92932428 32.82279629 59.21940946 19 59 C19 68.9 19 78.8 19 89 C12.73 89 6.46 89 0 89 C0 59.63 0 30.26 0 0 Z"/>
<path transform="translate(438,465)" fill="#FCFCFC" d="M0 0 C46.82857143 0 46.82857143 0 56.375 6.1875 C63.24505539 13.54827363 65.39372263 20.89412242 65.2734375 30.76953125 C64.51547969 39.72426137 60.7851026 47.11865082 54 53 C43.58919304 60.38902613 30.10608075 59.19369729 18 59 C18 68.9 18 78.8 18 89 C12.06 89 6.12 89 0 89 C0 59.63 0 30.26 0 0 Z"/>
<path transform="translate(515,465)" fill="#FCFCFC" d="M0 0 C48.77977468 0 48.77977468 0 58.34375 9.1328125 C64.17147953 15.70275286 65.377677 22.21146794 65.2734375 30.76953125 C64.51547969 39.72426137 60.7851026 47.11865082 54 53 C43.58919304 60.38902613 30.10608075 59.19369729 18 59 C18 68.9 18 78.8 18 89 C12.06 89 6.12 89 0 89 C0 59.63 0 30.26 0 0 Z"/>
<path transform="translate(753,465)" fill="#FBFBFB" d="M0 0 C7.59 0 15.18 0 23 0 C24.16015625 3.35929687 25.3203125 6.71859375 26.515625 10.1796875 C27.68005906 13.54918618 28.84489395 16.918546 30.00982666 20.28787231 C30.83436284 22.6727942 31.65870473 25.05778327 32.48284912 27.44284058 C36.57430823 39.28090475 40.66725336 51.11786807 44.8671875 62.91796875 C45.15166748 63.71809387 45.43614746 64.51821899 45.72924805 65.34259033 C47.02783946 68.99179296 48.33230227 72.63874641 49.64550781 76.28271484 C50.09973279 77.5543179 50.55384233 78.8259622 51.0078125 80.09765625 C51.39598145 81.17539307 51.78415039 82.25312988 52.18408203 83.36352539 C53 86 53 86 53 89 C46.4 89 39.8 89 33 89 C32.01 86.07125 31.02 83.1425 30 80.125 C29.68675781 79.20348145 29.37351562 78.28196289 29.05078125 77.33251953 C28.80714844 76.60661621 28.56351563 75.88071289 28.3125 75.1328125 C28.06113281 74.38918457 27.80976562 73.64555664 27.55078125 72.87939453 C27 71 27 71 27 69 C16.44 69 5.88 69 -5 69 C-5.66 71.64 -6.32 74.28 -7 77 C-8.26492587 81.02560349 -9.63820719 85.00540775 -11 89 C-17.27 89 -23.54 89 -30 89 C-27.74955115 78.87298016 -27.74955115 78.87298016 -26.27929688 74.54150391 C-25.95103912 73.56741074 -25.62278137 72.59331757 -25.28457642 71.58970642 C-24.75699234 70.04870018 -24.75699234 70.04870018 -24.21875 68.4765625 C-23.66349136 66.8382119 -23.66349136 66.8382119 -23.09701538 65.16676331 C-21.90330003 61.65101628 -20.70209703 58.13788915 -19.5 54.625 C-19.09493225 53.4361319 -18.6898645 52.24726379 -18.27252197 51.02236938 C-12.44122915 33.90856599 -6.42810977 16.89970794 0 0 Z"/>
<path transform="translate(660,470)" fill="#FBFBFB" d="M0 0 C4.56126286 3.68343491 7.81872771 7.48266422 10 13 C10 13.66 10 14.32 10 15 C7.75692972 16.20250158 5.5071209 17.3869162 3.25 18.5625 C2.29867187 19.07586914 2.29867187 19.07586914 1.328125 19.59960938 C-3.36711124 22.02059056 -3.36711124 22.02059056 -6.28125 21.92578125 C-8.39316712 20.78822589 -9.35488307 19.56995713 -10.75 17.625 C-14.77703154 12.7464817 -18.65444353 11.36513577 -24.86328125 10.6875 C-31.54253687 10.41591654 -37.50846705 10.922129 -43 15 C-49.92359882 22.84674533 -51.46776947 30.77891439 -51.31640625 41.03125 C-50.63545027 49.57262374 -48.58924568 58.17694568 -42 64 C-35.41091605 68.29722866 -27.61672342 67.74188864 -20 67 C-14.52393254 65.47522673 -11.14265503 62.77683565 -8 58 C-7.505 57.01 -7.505 57.01 -7 56 C-2.66695924 56.64465202 0.86672065 58.18925122 4.8125 60.0625 C5.97394531 60.61035156 7.13539063 61.15820312 8.33203125 61.72265625 C9.65267578 62.35494141 9.65267578 62.35494141 11 63 C7.64629726 72.08294491 1.47302219 76.69146167 -7 81 C-17.74116022 85.80083161 -30.01184438 86.90279534 -41.3125 83.375 C-53.25846376 78.77299785 -62.28350799 72.20734615 -67.875 60.4375 C-73.13814257 47.57204037 -74.0023632 34.25886177 -69.3203125 21.03125 C-64.7592274 10.55964634 -57.99959886 1.61871165 -47.5 -3.375 C-32.40026017 -9.26885354 -13.8178739 -9.08441537 0 0 Z"/>
<path transform="translate(677,511)" fill="#EFEFEF" d="M0 0 C13.2 0 26.4 0 40 0 C40 5.61 40 11.22 40 17 C26.8 17 13.6 17 0 17 C0 11.39 0 5.78 0 0 Z"/>
<path transform="translate(912,481)" fill="#131213" d="M0 0 C2.495625 -0.061875 4.99125 -0.12375 7.5625 -0.1875 C8.33408447 -0.21481201 9.10566895 -0.24212402 9.90063477 -0.27026367 C15.65719576 -0.33848849 20.33253938 0.77711615 24.875 4.5625 C27.81778332 8.32272313 27.5393532 12.42320284 27 17 C24.86119044 21.61982864 22.69342336 23.50953099 18.00366211 25.41113281 C14.52946379 26.43218391 11.15190142 26.31455514 7.5625 26.1875 C5.066875 26.125625 2.57125 26.06375 0 26 C0 17.42 0 8.84 0 0 Z"/>
<path transform="translate(835,481)" fill="#101010" d="M0 0 C4.021875 -0.0928125 4.021875 -0.0928125 8.125 -0.1875 C8.95789551 -0.21481201 9.79079102 -0.24212402 10.64892578 -0.27026367 C16.71382731 -0.33755499 20.75820408 0.99418259 25.375 5.125 C27.65409972 9.15725335 27.77481718 12.47091401 27 17 C24.86119044 21.61982864 22.69342336 23.50953099 18.00366211 25.41113281 C14.52946379 26.43218391 11.15190142 26.31455514 7.5625 26.1875 C5.066875 26.125625 2.57125 26.06375 0 26 C0 17.42 0 8.84 0 0 Z"/>
<path transform="translate(457,481)" fill="#111111" d="M0 0 C17.6744186 -0.58914729 17.6744186 -0.58914729 24 4 C26.24750929 6.38372197 26.93399855 7.85029739 27.12109375 11.109375 C26.81671171 16.96136514 25.26893298 20.02213063 21 24 C16.66544205 26.32067985 12.47974361 26.23548118 7.6875 26.125 C3.8821875 26.063125 3.8821875 26.063125 0 26 C0 17.42 0 8.84 0 0 Z"/>
<path transform="translate(533,481)" fill="#121111" d="M0 0 C18.58682635 -0.58083832 18.58682635 -0.58083832 25 4 C27.98105902 8.47158853 27.72611771 12.7599753 27 18 C25.33708377 21.6255856 23.00516873 23.57192669 19.3125 25.14453125 C15.52217802 26.12339978 12.00244329 26.22191464 8.125 26.125 C5.77375 26.08375 3.4225 26.0425 1 26 C0.67 17.42 0.34 8.84 0 0 Z"/>
<path transform="translate(764,484)" fill="#101010" d="M0 0 C2.13172954 3.19759431 3.03169897 5.90128149 4.1640625 9.56640625 C4.36099701 10.20110336 4.55793152 10.83580048 4.76083374 11.48973083 C5.17491414 12.82796666 5.58661714 14.16694013 5.99609375 15.5065918 C6.62432568 17.56029563 7.26077346 19.61131699 7.8984375 21.66210938 C11 31.7136984 11 31.7136984 11 34 C4.07 34 -2.86 34 -10 34 C-8.81506424 28.6677891 -7.718143 23.77685989 -6.0546875 18.65234375 C-5.70019531 17.55341797 -5.34570312 16.45449219 -4.98046875 15.32226562 C-4.61566406 14.20529297 -4.25085938 13.08832031 -3.875 11.9375 C-3.50246094 10.78572266 -3.12992188 9.63394531 -2.74609375 8.44726562 C-1.83437981 5.63030331 -0.9189396 2.81461174 0 0 Z"/>
<path transform="translate(402,494)" fill="#010101" d="M0 0 C0.33 0 0.66 0 1 0 C1 19.8 1 39.6 1 60 C7.27 60 13.54 60 20 60 C20 60.33 20 60.66 20 61 C16.68751813 61.02888146 13.37506833 61.04675799 10.0625 61.0625 C9.11697266 61.07087891 8.17144531 61.07925781 7.19726562 61.08789062 C5.84858398 61.09272461 5.84858398 61.09272461 4.47265625 61.09765625 C3.22367554 61.10551147 3.22367554 61.10551147 1.94946289 61.11352539 C0 61 0 61 -1 60 C-1.13339331 58.34503845 -1.19891841 56.68454877 -1.23706055 55.0246582 C-1.26346115 53.96297928 -1.28986176 52.90130035 -1.31706238 51.80744934 C-1.34004898 50.65024887 -1.36303558 49.4930484 -1.38671875 48.30078125 C-1.41224319 47.11783981 -1.43776764 45.93489838 -1.46406555 44.71611023 C-1.51619883 42.20508066 -1.56561028 39.69399337 -1.61254883 37.18286133 C-1.68684767 33.34618539 -1.7775828 29.51012587 -1.86914062 25.67382812 C-1.91768104 23.23699916 -1.96523873 20.80015038 -2.01171875 18.36328125 C-2.04077805 17.21620193 -2.06983734 16.06912262 -2.09977722 14.88728333 C-2.18410634 9.52497902 -2.24205078 4.9973685 0 0 Z"/>
<path transform="translate(912,481)" fill="#040404" d="M0 0 C2.59875 -0.04125 5.1975 -0.0825 7.875 -0.125 C8.69210449 -0.14320801 9.50920898 -0.16141602 10.35107422 -0.18017578 C12.23495049 -0.19477217 14.11869312 -0.09943482 16 0 C16.66 0.66 17.32 1.32 18 2 C12.72 2 7.44 2 2 2 C2 9.26 2 16.52 2 24 C1.67 24 1.34 24 1 24 C0.67 16.08 0.34 8.16 0 0 Z"/>
<path transform="translate(624,461)" fill="#1D1D1E" d="M0 0 C6.27 0 12.54 0 19 0 C19 0.66 19 1.32 19 2 C20.65 1.67 22.3 1.34 24 1 C24 1.66 24 2.32 24 3 C25.32 3.33 26.64 3.66 28 4 C25.0894446 5.4552777 23.04150948 4.63516661 19.875 4.0625 C18.77929688 3.86785156 17.68359375 3.67320312 16.5546875 3.47265625 C15.71164062 3.31667969 14.86859375 3.16070312 14 3 C14 2.67 14 2.34 14 2 C7.07 1.505 7.07 1.505 0 1 C0 0.67 0 0.34 0 0 Z"/>
<path transform="translate(91,401)" fill="#328EEF" d="M0 0 C0.66 0.33 1.32 0.66 2 1 C1.113125 1.556875 0.22625 2.11375 -0.6875 2.6875 C-2.96319268 4.19394445 -4.59604866 5.59604866 -6.5625 7.5625 C-8.90436357 9.90436357 -11.10350606 11.42761758 -14 13 C-12.57646476 9.66863403 -10.8664687 7.72335243 -8.125 5.375 C-7.44695312 4.78460938 -6.76890625 4.19421875 -6.0703125 3.5859375 C-4.08901679 2.06819022 -2.32550496 0.9049036 0 0 Z"/>
<path transform="translate(608,500)" fill="#1B1B1B" d="M0 0 C2.34770643 3.52155964 2.37669614 5.50771843 2.625 9.6875 C2.69976563 10.86699219 2.77453125 12.04648437 2.8515625 13.26171875 C2.90054688 14.16535156 2.94953125 15.06898438 3 16 C2.01 15.67 1.02 15.34 0 15 C0 10.05 0 5.1 0 0 Z"/>
<path transform="translate(764,484)" fill="#1C1B1C" d="M0 0 C0.66 0.99 1.32 1.98 2 3 C1.25 5.6875 1.25 5.6875 0 9 C-0.71778295 11.65579693 -1.35438911 14.3253263 -2 17 C-4 14 -4 14 -3.57421875 11.40625 C-3.13529297 9.96765625 -3.13529297 9.96765625 -2.6875 8.5 C-2.40261719 7.5409375 -2.11773438 6.581875 -1.82421875 5.59375 C-1.23026378 3.72462155 -0.62019543 1.86058628 0 0 Z"/>
<path transform="translate(867,519)" fill="#1C1C1C" d="M0 0 C0.66 0.99 1.32 1.98 2 3 C-5.42857143 5.14285714 -5.42857143 5.14285714 -9 6 C-9 5.01 -9 4.02 -9 3 C-6.03 2.01 -3.06 1.02 0 0 Z"/>
<path transform="translate(737,503)" fill="#1C1B1B" d="M0 0 C1.53690745 2.41040161 2.09752136 3.50082285 1.5390625 6.359375 C1.23742187 7.14828125 0.93578125 7.9371875 0.625 8.75 C0.32851563 9.54921875 0.03203125 10.3484375 -0.2734375 11.171875 C-0.51320313 11.77515625 -0.75296875 12.3784375 -1 13 C-3 10 -3 10 -2.625 7.3125 C-2.41875 6.549375 -2.2125 5.78625 -2 5 C-1.34 5 -0.68 5 0 5 C0 3.35 0 1.7 0 0 Z"/>
<path transform="translate(587,521)" fill="#191919" d="M0 0 C0.99 0 1.98 0 3 0 C3.99 3.3 4.98 6.6 6 10 C5.01 9.67 4.02 9.34 3 9 C2.67 7.02 2.34 5.04 2 3 C1.34 3 0.68 3 0 3 C0 2.01 0 1.02 0 0 Z"/>
<path transform="translate(357,480)" fill="#1F1F1F" d="M0 0 C0.66 0 1.32 0 2 0 C5.22265625 5.17578125 5.22265625 5.17578125 6 7 C5.67 7.99 5.34 8.98 5 10 C2.35534962 6.8745041 1.15585285 3.91211733 0 0 Z"/>
<path transform="translate(745,542)" fill="#1D1C1D" d="M0 0 C0.99 0 1.98 0 3 0 C2.34 2.64 1.68 5.28 1 8 C0.01 8 -0.98 8 -2 8 C-1.34 5.36 -0.68 2.72 0 0 Z"/>
<path transform="translate(402,494)" fill="#0A0A0A" d="M0 0 C0.33 0 0.66 0 1 0 C1 2.97 1 5.94 1 9 C0.01 9 -0.98 9 -2 9 C-1.34 6.03 -0.68 3.06 0 0 Z"/>
<path transform="translate(856,463)" fill="#171818" d="M0 0 C2.61580479 0.3269756 4.64078137 0.82039068 7 2 C6.67 2.66 6.34 3.32 6 4 C3.36 3.34 0.72 2.68 -2 2 C-1.34 1.34 -0.68 0.68 0 0 Z"/>
<path transform="translate(226,505)" fill="#196EE1" d="M0 0 C0.33 0.99 0.66 1.98 1 3 C-0.40445835 5.2636564 -2.1967913 7.0208685 -4 9 C-4.66 8.67 -5.32 8.34 -6 8 C-4.02 5.36 -2.04 2.72 0 0 Z"/>
</svg>