<svg xmlns="http://www.w3.org/2000/svg" version="1.1" viewBox="32.768 352.256 954.368 286.72" style="max-height: 500px" width="954.368" height="286.72">
<path transform="translate(0,0)" fill="#FEFEFE" d="M0 0 C337.92 0 675.84 0 1024 0 C1024 337.92 1024 675.84 1024 1024 C686.08 1024 348.16 1024 0 1024 C0 686.08 0 348.16 0 0 Z"/>
<path transform="translate(116.6263427734375,397.8460998535156)" fill="#3C83ED" d="M0 0 C0.6646535 -0.00438225 1.32930699 -0.00876451 2.01410151 -0.01327956 C4.24007615 -0.02662801 6.46601123 -0.03283758 8.6920166 -0.03897095 C10.2888812 -0.04687527 11.88574402 -0.05514443 13.48260498 -0.06375122 C18.72752179 -0.08994142 23.97244643 -0.10527967 29.21740723 -0.11953735 C31.02618922 -0.12489899 32.83497116 -0.1302765 34.64375305 -0.13566971 C42.17225198 -0.15729741 49.70074881 -0.17603097 57.22927094 -0.1872921 C67.99926634 -0.20351013 78.76889978 -0.23663688 89.53875875 -0.29369295 C97.12112978 -0.33248443 104.70340438 -0.35193588 112.28587198 -0.35721266 C116.80908816 -0.36085461 121.33191802 -0.37275146 125.85502625 -0.4053154 C130.11676216 -0.43555723 134.37788129 -0.44165105 138.63970184 -0.42993164 C140.1956437 -0.42971222 141.75161553 -0.43790729 143.30745697 -0.45558548 C154.97341459 -0.5808191 166.01071075 1.01047756 174.84631348 9.34921265 C180.70619341 16.27316285 184.61546378 23.80434314 184.64108276 32.91395569 C184.64561388 33.58087474 184.65014499 34.24779379 184.65481341 34.93492252 C184.66744109 37.16252716 184.66583811 39.38988679 184.66418457 41.61752319 C184.670171 43.21778171 184.67697681 44.81803734 184.68453979 46.41828918 C184.70219905 50.7615167 184.70689525 55.10466538 184.70817137 59.44792533 C184.70959399 62.16420862 184.71386577 64.88047194 184.7191658 67.59675026 C184.73766843 77.08122655 184.74583645 86.56564664 184.7442627 96.05014038 C184.74306242 104.87687859 184.76414174 113.70337182 184.79575002 122.53004807 C184.82195069 130.11836444 184.83262835 137.70660101 184.83135188 145.29496223 C184.8308432 149.82249393 184.83647367 154.34980807 184.85770798 158.87729454 C184.87715343 163.13981692 184.87717205 167.40191569 184.86267471 171.66445351 C184.86059305 173.2228317 184.86524899 174.78123684 184.87739563 176.33956909 C184.96714162 188.65824446 183.21856063 199.00530907 174.37365723 208.15390015 C163.50239468 217.52048968 152.62524768 218.60497946 138.74133301 218.57382202 C137.18298743 218.58117452 135.62464728 218.58976416 134.0663147 218.5994873 C129.85957493 218.62158698 125.6530317 218.62463985 121.44624186 218.62273979 C117.92265829 218.62261956 114.39911558 218.6312049 110.87554348 218.63951731 C102.55669002 218.65870954 94.2379369 218.66165036 85.91906738 218.65487671 C77.3631478 218.64823777 68.80765951 218.67110389 60.25182736 218.70819044 C52.88162269 218.73896774 45.51155621 218.75023883 38.14128864 218.74635363 C33.75009765 218.74429455 29.35924254 218.74963452 24.96811295 218.77424622 C20.83592638 218.79664449 16.7044374 218.79452823 12.57224655 218.7743187 C11.0646942 218.7709317 9.55709365 218.77589697 8.04960632 218.79030228 C-5.31539551 218.90910261 -15.71681591 216.06577442 -25.49743652 206.61483765 C-34.47561326 196.23639481 -34.92460809 184.25067759 -34.88513184 171.16000366 C-34.88784537 169.64635042 -34.89140834 168.13269851 -34.89575195 166.61904907 C-34.90483587 162.52604064 -34.90134805 158.43313352 -34.89499378 154.34012341 C-34.88991211 150.04553798 -34.89463133 145.75096092 -34.89776611 141.45637512 C-34.90139984 134.24477591 -34.89662264 127.03321773 -34.88708496 119.82162476 C-34.87620568 111.49985798 -34.87972455 103.17818926 -34.89073777 94.85642487 C-34.89983249 87.69608874 -34.90108513 80.53578201 -34.89586043 73.37544197 C-34.8927522 69.10571718 -34.89229966 64.83603838 -34.89893341 60.5663166 C-34.90473794 56.55008004 -34.90065346 52.53396906 -34.8891449 48.51774597 C-34.88651468 47.04925685 -34.88723518 45.58075704 -34.89167023 44.11227226 C-34.92747245 31.04680936 -33.96761587 20.10189003 -24.73571777 10.10702515 C-17.33736932 3.29122382 -10.02947646 0.04695936 0 0 Z"/>
<path transform="translate(335,467)" fill="#19191A" d="M0 0 C7.92 0 15.84 0 24 0 C32.2256544 16.90170487 40.33938003 33.83214746 48 51 C53.76244516 39.54576636 59.40984323 28.03918185 65 16.5 C65.7824638 14.88667593 66.5650155 13.27339449 67.34765625 11.66015625 C69.23293929 7.77400199 71.11643662 3.88698988 73 0 C80.59 0 88.18 0 96 0 C96 29.04 96 58.08 96 88 C90.39 88 84.78 88 79 88 C78.67 67.87 78.34 47.74 78 27 C75.48375 32.341875 72.9675 37.68375 70.375 43.1875 C69.20396729 45.67253052 69.20396729 45.67253052 68.00927734 48.20776367 C63.96832492 56.78812614 59.96182005 65.38272895 56 74 C51.05 74 46.1 74 41 74 C33.06002777 58.59645387 26.08884517 42.81357769 19 27 C18.67 47.13 18.34 67.26 18 88 C12.06 88 6.12 88 0 88 C0 58.96 0 29.92 0 0 Z"/>
<path transform="translate(268,444)" fill="#FCFDFE" d="M0 0 C4.8846525 2.26787438 7.73212562 5.1153475 10 10 C10.9034842 15.13179023 11.19784186 19.8171134 8.63671875 24.484375 C5.29602411 28.54357824 2.27433121 31.0110629 -3 32 C-4.11890625 32.04125 -5.2378125 32.0825 -6.390625 32.125 C-10.39435442 33.09560107 -11.45390203 34.1786305 -13.61157227 37.60791016 C-13.98725342 38.2529248 -14.36293457 38.89793945 -14.75 39.5625 C-15.60642672 40.93722483 -16.46455912 42.31088824 -17.32421875 43.68359375 C-17.98043213 44.75262939 -17.98043213 44.75262939 -18.64990234 45.84326172 C-20.84324865 49.34706303 -23.20323372 52.73167057 -25.5625 56.125 C-26.47680894 57.45035086 -27.39087354 58.77587031 -28.3046875 60.1015625 C-29.20292421 61.40118047 -30.10136076 62.70066033 -31 64 C-31.67337402 64.97404785 -31.67337402 64.97404785 -32.36035156 65.96777344 C-34.90433407 69.64696393 -37.45094296 73.32432268 -40 77 C-39.67773438 77.53882813 -39.35546875 78.07765625 -39.0234375 78.6328125 C-37.05139741 83.19409606 -37.49134868 88.1352066 -38 93 C-40.09952842 97.89889964 -43.02811269 100.19635162 -47.78515625 102.3046875 C-53.09623871 103.97201145 -57.35235468 103.83936648 -62.3125 101.3125 C-66.80513985 97.44674013 -68.95378666 95.12018375 -69.5625 89.1875 C-70.36508214 84.28445273 -72.19367161 82.56044467 -76.1875 79.6875 C-77.1878125 79.05457031 -78.188125 78.42164063 -79.21875 77.76953125 C-81.57961077 76.26746674 -83.22214922 74.8142158 -85.1875 72.875 C-89.29947488 69.99463112 -94.20818822 70.65972469 -98.94824219 71.27905273 C-106.77322828 72.81085634 -110.44804588 77.74106309 -115 84 C-116.63779363 85.98582478 -118.2833671 87.96526462 -119.9375 89.9375 C-122.35404449 92.91541962 -124.71843817 95.91738824 -127 99 C-126.67 99.66 -126.34 100.32 -126 101 C-125.58854556 105.47061078 -125.44531609 109.61329021 -127.125 113.8125 C-130.68433611 117.9650588 -134.34976993 121.56848055 -140.015625 122.23828125 C-145.94156563 122.43512194 -149.21483459 121.56541736 -154 118 C-158.13489906 112.66815647 -159.45672521 108.73669682 -159 102 C-156.95682161 96.32450447 -153.40252559 92.70126279 -148 90 C-147.20851563 90.05800781 -146.41703125 90.11601563 -145.6015625 90.17578125 C-141.4800936 90.36508756 -137.8038621 90.41883701 -134.42382812 87.76025391 C-131.09684818 84.3898325 -128.30082931 80.6116444 -125.46240234 76.83056641 C-124.06502373 75.08139364 -122.60787367 73.55426311 -120.98828125 72.01171875 C-115.84453531 67.3681426 -115.84453531 67.3681426 -113.7109375 61.0859375 C-114.0257714 58.20161925 -114.0257714 58.20161925 -114.59765625 55.4375 C-115 53 -115 53 -114 49.6875 C-107.91929346 41.51655059 -107.91929346 41.51655059 -102.0859375 40.484375 C-97.30720048 40.31836428 -93.86480549 40.59848317 -89.5 42.625 C-86.66329406 45.31987064 -84.78331882 47.4994112 -83 51 C-82.97017152 52.43719049 -82.97245715 53.87526389 -83 55.3125 C-82.77952836 58.9380336 -82.14090769 59.86514356 -79.453125 62.4375 C-76.3615737 64.72977219 -73.20610682 66.872089 -70 69 C-69.10410156 69.76054688 -68.20820313 70.52109375 -67.28515625 71.3046875 C-66.53105469 71.86414063 -65.77695313 72.42359375 -65 73 C-62.07561246 72.35980881 -62.07561246 72.35980881 -59 71 C-57.77539062 71.02578125 -56.55078125 71.0515625 -55.2890625 71.078125 C-52.27756312 70.72689256 -51.19978334 70.20032791 -49.02954102 68.02416992 C-46.95456753 65.23041994 -45.0559124 62.37344482 -43.1875 59.4375 C-42.4975293 58.39787109 -41.80755859 57.35824219 -41.09667969 56.28710938 C-39.70332422 54.18703572 -38.31924906 52.08077331 -36.94482422 49.96826172 C-34.29351574 45.92173793 -31.52486676 41.96223364 -28.75 38 C-27.13439471 35.68657459 -25.549459 33.35822758 -24 31 C-23.58685547 30.39027344 -23.17371094 29.78054688 -22.74804688 29.15234375 C-21.40627502 27.12451512 -21.40627502 27.12451512 -20 24 C-20.62150454 21.78815896 -20.62150454 21.78815896 -22 20 C-23.07030687 14.00628155 -21.8465126 9.76319086 -18.58203125 4.7265625 C-13.35252966 -0.98069603 -7.26118276 -0.87685925 0 0 Z"/>
<path transform="translate(754,467)" fill="#1B1A1B" d="M0 0 C7.26 0 14.52 0 22 0 C26.10493952 9.5379477 29.6059403 19.19265888 33 29 C34.13671043 32.26914299 35.27661907 35.53716152 36.41796875 38.8046875 C36.70866745 39.63733124 36.99936615 40.46997498 37.2988739 41.32785034 C39.40403626 47.34058928 41.55775175 53.33452561 43.73828125 59.3203125 C44.0399118 60.14924011 44.34154236 60.97816772 44.65231323 61.83221436 C46.10750172 65.82802731 47.56872185 69.82151963 49.03710938 73.8125 C49.56266063 75.25254555 50.08805965 76.69264668 50.61328125 78.1328125 C50.85637527 78.78734406 51.0994693 79.44187561 51.34992981 80.11624146 C52.36235416 82.90403744 53 85.00510096 53 88 C46.73 88 40.46 88 34 88 C33.01 85.256875 32.02 82.51375 31 79.6875 C30.68675781 78.82729248 30.37351562 77.96708496 30.05078125 77.08081055 C29.80714844 76.39801025 29.56351563 75.71520996 29.3125 75.01171875 C29.06113281 74.31522217 28.80976562 73.61872559 28.55078125 72.90112305 C28 71 28 71 28 68 C11.665 68.495 11.665 68.495 -5 69 C-6.98 75.27 -8.96 81.54 -11 88 C-17.6 88 -24.2 88 -31 88 C-28.83960499 80.59960639 -26.43139668 73.32414795 -23.8671875 66.0546875 C-23.47105255 64.92717072 -23.0749176 63.79965393 -22.66677856 62.63796997 C-21.82912212 60.25580423 -20.99030513 57.8740463 -20.15039062 55.49267578 C-18.89620582 51.93515081 -17.64704973 48.37589029 -16.3984375 44.81640625 C-11.11931749 29.80349317 -5.63379384 14.88364449 0 0 Z"/>
<path transform="translate(448,467)" fill="#191919" d="M0 0 C46.04219409 0 46.04219409 0 56 8 C62.82276855 16.09340561 63.78694089 23.7807343 63.21777344 34.03515625 C62.48157263 40.67747027 58.87016659 45.48775234 54.125 49.9375 C45.88913686 56.51690194 37.33144405 57.16163428 27.125 57.0625 C24.11375 57.041875 21.1025 57.02125 18 57 C18 67.23 18 77.46 18 88 C12.06 88 6.12 88 0 88 C0 58.96 0 29.92 0 0 Z"/>
<path transform="translate(891,467)" fill="#1B1A1B" d="M0 0 C47.9 0 47.9 0 57.3046875 9.04296875 C63.1671286 15.81044108 63.58763208 22.71468687 63.31640625 31.47265625 C62.62895991 39.13640989 59.74050876 44.84987179 54 50 C43.20138922 57.9568711 30.7827449 57.21850846 18 57 C18 67.23 18 77.46 18 88 C12.06 88 6.12 88 0 88 C0 58.96 0 29.92 0 0 Z"/>
<path transform="translate(816,467)" fill="#1B1A1B" d="M0 0 C47.9 0 47.9 0 57.3046875 9.04296875 C63.12604107 15.76301054 63.63944051 22.696515 63.38671875 31.40234375 C62.58245822 38.88440379 59.44712407 44.78970741 54 50 C42.3059466 57.38571793 31.40847499 57.21115709 18 57 C18 67.23 18 77.46 18 88 C12.06 88 6.12 88 0 88 C0 58.96 0 29.92 0 0 Z"/>
<path transform="translate(523,467)" fill="#191919" d="M0 0 C44.43243243 0 44.43243243 0 55.5 7.3125 C61.60639884 13.87687876 63.32355608 21.01904618 63.20703125 29.80078125 C62.70671135 37.5321397 60.54508777 43.57844166 55.16796875 49.2421875 C48.99867142 54.24432047 41.15421905 57.14842448 33.234375 57.09765625 C32.43225586 57.09515869 31.63013672 57.09266113 30.80371094 57.09008789 C29.79598633 57.08098389 28.78826172 57.07187988 27.75 57.0625 C24.5325 57.041875 21.315 57.02125 18 57 C18 67.23 18 77.46 18 88 C12.06 88 6.12 88 0 88 C0 58.96 0 29.92 0 0 Z"/>
<path transform="translate(665,473)" fill="#1A1A1A" d="M0 0 C5.07597609 4.23581453 8.17111017 7.53914799 10 14 C7.56686628 15.03251062 5.12943108 16.05119521 2.6875 17.0625 C1.99720703 17.35705078 1.30691406 17.65160156 0.59570312 17.95507812 C-4.66015625 20.11328125 -4.66015625 20.11328125 -8 19 C-8.53625 18.236875 -9.0725 17.47375 -9.625 16.6875 C-13.48846566 12.3156836 -17.94839951 10.4804269 -23.6796875 9.578125 C-31.57268915 9.175649 -37.83050418 11.45504892 -43.8515625 16.57421875 C-50.61316314 23.71886573 -51.58412983 32.02130496 -51.34765625 41.5625 C-50.61409402 48.81569956 -47.83435453 55.18908824 -42.82421875 60.52734375 C-37.55701918 64.77945132 -30.95211948 66.75479334 -24.22265625 66.375 C-15.82789819 64.95866121 -11.01692821 60.64622 -6 54 C-0.14340094 55.66153012 5.4590134 57.47041916 11 60 C5.90998861 70.91103506 -0.32629677 77.05751742 -11.75 81.3125 C-23.7906291 85.48447237 -35.24002429 85.00833136 -47 80 C-57.02555361 74.46914291 -64.22843061 66.84996503 -68 56 C-68.35707031 54.98421875 -68.71414063 53.9684375 -69.08203125 52.921875 C-72.31554447 41.26655092 -71.72571518 24.65664271 -66 14 C-59.95819484 3.40907096 -51.38537747 -2.90126411 -40 -7 C-26.43541754 -10.34404637 -11.43835392 -8.09868855 0 0 Z"/>
<path transform="translate(909,482)" fill="#F9F9FA" d="M0 0 C4.021875 -0.0928125 4.021875 -0.0928125 8.125 -0.1875 C8.95789551 -0.21481201 9.79079102 -0.24212402 10.64892578 -0.27026367 C15.51661592 -0.32427169 18.78283725 0.31346409 23 3 C26.08847593 6.41357866 27.26431338 9.03705837 27.4375 13.5625 C27.24147357 17.45035754 26.58495431 19.96936391 24 23 C18.54270243 26.91805979 13.80893347 27.14246973 7.25 27.0625 C4.8575 27.041875 2.465 27.02125 0 27 C0 18.09 0 9.18 0 0 Z"/>
<path transform="translate(466,482)" fill="#FCFCFC" d="M0 0 C16.90025575 -0.45268542 16.90025575 -0.45268542 23 3 C26.13376934 6.36880204 26.91989609 8.36918169 27.5 12.9375 C27.23536156 17.54220892 25.74998012 20.30923721 23 24 C17.99245554 27.25792049 13.87410603 27.37602263 8.125 27.1875 C5.44375 27.125625 2.7625 27.06375 0 27 C0 18.09 0 9.18 0 0 Z"/>
<path transform="translate(834,482)" fill="#FBFBFC" d="M0 0 C4.021875 -0.0928125 4.021875 -0.0928125 8.125 -0.1875 C8.95789551 -0.21481201 9.79079102 -0.24212402 10.64892578 -0.27026367 C15.51547748 -0.32425906 18.7861417 0.30922301 23 3 C26.42872169 6.87986928 27.66819797 9.96663654 27.38671875 15.04296875 C26.50953103 19.48207026 24.06899186 22.2249809 20.5 24.8125 C13.92418413 27.93601254 7.16412518 27.06633449 0 27 C0 18.09 0 9.18 0 0 Z"/>
<path transform="translate(541,482)" fill="#FCFCFC" d="M0 0 C2.51625 -0.061875 5.0325 -0.12375 7.625 -0.1875 C8.79603271 -0.22846802 8.79603271 -0.22846802 9.99072266 -0.27026367 C14.730398 -0.32621567 17.88572231 0.4124811 22 3 C26.95782662 8.49380788 26.95782662 8.49380788 27.0546875 11.953125 C26.58700598 17.93131483 25.47196026 20.92554732 21 25 C16.35636446 26.99399197 12.10161455 27.24938784 7.125 27.125 C4.77375 27.08375 2.4225 27.0425 0 27 C0 18.09 0 9.18 0 0 Z"/>
<path transform="translate(682,514)" fill="#161616" d="M0 0 C12.21 0 24.42 0 37 0 C37 4.62 37 9.24 37 14 C24.79 14 12.58 14 0 14 C0 9.38 0 4.76 0 0 Z"/>
<path transform="translate(764,487)" fill="#FAFAFA" d="M0 0 C0.66 0 1.32 0 2 0 C3.4279783 4.2345633 4.85204104 8.47041664 6.27246094 12.70751953 C6.75640691 14.14928877 7.24142839 15.59069746 7.72753906 17.03173828 C8.42534712 19.10095279 9.11929998 21.17142543 9.8125 23.2421875 C10.23144531 24.4885498 10.65039062 25.73491211 11.08203125 27.01904297 C12 30 12 30 12 32 C5.07 32 -1.86 32 -9 32 C-6.75 20.75 -6.75 20.75 -5.2734375 16.2109375 C-4.9640625 15.25058594 -4.6546875 14.29023438 -4.3359375 13.30078125 C-3.86027344 11.85251953 -3.86027344 11.85251953 -3.375 10.375 C-3.05015625 9.37082031 -2.7253125 8.36664063 -2.390625 7.33203125 C-1.59869492 4.88636483 -0.80176173 2.4424572 0 0 Z"/>
<path transform="translate(891,467)" fill="#060606" d="M0 0 C12.87 0 25.74 0 39 0 C38.67 0.66 38.34 1.32 38 2 C26.12 2 14.24 2 2 2 C2 29.72 2 57.44 2 86 C6.95 86 11.9 86 17 86 C16.98839844 83.84597656 16.97679687 81.69195313 16.96484375 79.47265625 C16.95705263 77.39428861 16.95097619 75.31592257 16.94506836 73.23754883 C16.94002899 71.78929927 16.93319747 70.34105483 16.92456055 68.89282227 C16.91247753 66.81525412 16.90676789 64.73775303 16.90234375 62.66015625 C16.89710693 61.40855713 16.89187012 60.15695801 16.88647461 58.86743164 C17 56 17 56 18 55 C19.85174706 54.84213692 21.7090911 54.74892644 23.56640625 54.68359375 C24.69111328 54.64169922 25.81582031 54.59980469 26.97460938 54.55664062 C28.15861328 54.51732422 29.34261719 54.47800781 30.5625 54.4375 C31.75037109 54.39431641 32.93824219 54.35113281 34.16210938 54.30664062 C37.10794784 54.20016454 40.0538743 54.09815159 43 54 C39.5036129 57.4963871 34.55684547 57.04618925 29.81640625 57.09765625 C28.39840014 57.09205434 26.98041848 57.07923016 25.5625 57.0625 C23.066875 57.041875 20.57125 57.02125 18 57 C18 67.23 18 77.46 18 88 C12.06 88 6.12 88 0 88 C0 58.96 0 29.92 0 0 Z"/>
<path transform="translate(335,467)" fill="#252525" d="M0 0 C7.92 0 15.84 0 24 0 C24.99 1.98 25.98 3.96 27 6 C26.67 6.99 26.34 7.98 26 9 C25.01 7.02 24.02 5.04 23 3 C16.4 3 9.8 3 3 3 C3 30.72 3 58.44 3 87 C1.515 87.495 1.515 87.495 0 88 C0 58.96 0 29.92 0 0 Z"/>
<path transform="translate(816,467)" fill="#010202" d="M0 0 C13.53 0 27.06 0 41 0 C41.66 0.66 42.32 1.32 43 2 C29.14 1.67 15.28 1.34 1 1 C1 29.05 1 57.1 1 86 C5.95 86 10.9 86 16 86 C16 76.43 16 66.86 16 57 C16.33 57 16.66 57 17 57 C17.495 72.345 17.495 72.345 18 88 C12.06 88 6.12 88 0 88 C0 58.96 0 29.92 0 0 Z"/>
<path transform="translate(834.765869140625,521.978271484375)" fill="#313131" d="M0 0 C1.12329712 0.07069702 1.12329712 0.07069702 2.26928711 0.14282227 C3.07817383 0.19116211 3.88706055 0.23950195 4.72045898 0.28930664 C5.99566406 0.37341797 5.99566406 0.37341797 7.29663086 0.45922852 C8.57763672 0.53753906 8.57763672 0.53753906 9.88452148 0.61743164 C12.00135081 0.74751612 14.1177833 0.88402822 16.23413086 1.02172852 C16.23413086 1.35172852 16.23413086 1.68172852 16.23413086 2.02172852 C10.62413086 2.02172852 5.01413086 2.02172852 -0.76586914 2.02172852 C-0.76586914 11.26172852 -0.76586914 20.50172852 -0.76586914 30.02172852 C-1.09586914 30.02172852 -1.42586914 30.02172852 -1.76586914 30.02172852 C-1.93315127 25.91022964 -2.09374382 21.79853046 -2.24804688 17.68652344 C-2.3015294 16.28671171 -2.35686348 14.88696948 -2.4140625 13.48730469 C-2.49579863 11.47943892 -2.5703994 9.47128664 -2.64477539 7.46313477 C-2.69190674 6.25343018 -2.73903809 5.04372559 -2.78759766 3.79736328 C-2.75813642 0.03393808 -2.75813642 0.03393808 0 0 Z"/>
<path transform="translate(724,552)" fill="#070707" d="M0 0 C5.61 0.33 11.22 0.66 17 1 C16.67 1.66 16.34 2.32 16 3 C10.39 3 4.78 3 -1 3 C-0.67 2.01 -0.34 1.02 0 0 Z"/>
<path transform="translate(580,478)" fill="#151415" d="M0 0 C3.01728007 2.82261684 4.79754601 4.66471678 5.16796875 8.9375 C5.17441406 9.618125 5.18085937 10.29875 5.1875 11 C5.20167969 11.680625 5.21585938 12.36125 5.23046875 13.0625 C5 15 5 15 3 18 C2.86722656 17.03578125 2.73445312 16.0715625 2.59765625 15.078125 C2.33275391 13.18320312 2.33275391 13.18320312 2.0625 11.25 C1.88847656 9.99703125 1.71445312 8.7440625 1.53515625 7.453125 C1.13950662 4.90017407 0.69553578 2.4813709 0 0 Z"/>
<path transform="translate(659,527)" fill="#242425" d="M0 0 C0.66 0.33 1.32 0.66 2 1 C0.60667426 4.36720387 -0.9789286 5.9859524 -4 8 C-4.66 7.67 -5.32 7.34 -6 7 C-4.02 4.69 -2.04 2.38 0 0 Z"/>
</svg>