<?xml version="1.0" encoding="UTF-8"?>
<svg version="1.1" xmlns="http://www.w3.org/2000/svg" width="512" height="512">
<path d="M0 0 C0.87624023 0.16097168 1.75248047 0.32194336 2.65527344 0.48779297 C57.4322292 10.87446163 110.1153871 41.14762483 144 86 C144.47614746 86.62148926 144.95229492 87.24297852 145.44287109 87.88330078 C176.94953805 129.21557629 194.57461476 179.49487554 194.3125 231.5625 C194.31034485 232.34203033 194.3081897 233.12156067 194.30596924 233.92471313 C194.07395182 286.59065536 176.41266742 338.08005604 143 379 C142.1853125 380.01835937 141.370625 381.03671875 140.53125 382.0859375 C128.9470585 396.34272322 115.82181337 409.15581613 101 420 C99.87216154 420.84604192 98.74455819 421.69239736 97.6171875 422.5390625 C67.08506681 445.18699466 31.42551688 459.05976728 -6 465 C-6.74942871 465.12842285 -7.49885742 465.2568457 -8.27099609 465.38916016 C-32.0466866 469.37126808 -58.3777351 468.2531058 -82 464 C-82.89477051 463.83902832 -83.78954102 463.67805664 -84.71142578 463.51220703 C-129.91184566 454.99879341 -171.35401482 433.74054643 -204.265625 401.6875 C-205.90547243 400.09197277 -207.56040286 398.51375075 -209.21875 396.9375 C-216.09008891 390.32733317 -222.07260707 383.24020003 -227.78759766 375.61376953 C-228.85830727 374.18860026 -229.94916093 372.77861319 -231.04296875 371.37109375 C-261.02199477 331.87295432 -276.56098631 281.79790951 -276.3125 232.4375 C-276.31034485 231.65796967 -276.3081897 230.87843933 -276.30596924 230.07528687 C-276.10522829 184.50883115 -263.06526406 138.68471913 -237 101 C-236.35297119 100.06220703 -236.35297119 100.06220703 -235.69287109 99.10546875 C-221.55740428 78.83379527 -204.66943071 59.87206215 -184.6796875 45.23095703 C-183.0029241 44.00214293 -181.34512847 42.75055492 -179.6875 41.49609375 C-149.58364685 19.03223364 -113.92309939 5.1046753 -77 -1 C-76.27683594 -1.12842285 -75.55367187 -1.2568457 -74.80859375 -1.38916016 C-50.87427926 -5.51079668 -23.77381288 -4.49497363 0 0 Z M-58.73828125 114.0234375 C-62.16079178 119.38501747 -62.2814717 124.71580167 -62.22705078 130.85107422 C-62.22734283 131.72001816 -62.22763489 132.5889621 -62.22793579 133.48423767 C-62.22654838 136.34115774 -62.21101493 139.19781328 -62.1953125 142.0546875 C-62.19158028 144.04151263 -62.18873429 146.02833961 -62.18673706 148.01516724 C-62.17911709 153.2331657 -62.15948263 158.45105204 -62.1373291 163.66900635 C-62.11683543 168.99807214 -62.10772781 174.32715612 -62.09765625 179.65625 C-62.07623521 190.10421581 -62.04211901 200.55209856 -62 211 C-63.64585083 210.99000725 -63.64585083 210.99000725 -65.32495117 210.97981262 C-75.6825933 210.91890737 -86.04019893 210.87398216 -96.39797974 210.84456348 C-101.72258996 210.82893044 -107.04705522 210.80773521 -112.37158203 210.77368164 C-117.51333027 210.74100412 -122.65493935 210.72312923 -127.79678345 210.71536827 C-129.7551187 210.70983983 -131.71344664 210.69904416 -133.67172241 210.68280983 C-136.42193863 210.66092402 -139.17158523 210.65803773 -141.921875 210.65942383 C-143.12705528 210.64324509 -143.12705528 210.64324509 -144.35658264 210.6267395 C-150.82645221 210.6618536 -156.45599734 211.8023639 -161.49609375 216.15625 C-162.13675781 216.9296875 -162.77742188 217.703125 -163.4375 218.5 C-164.09621094 219.2734375 -164.75492187 220.046875 -165.43359375 220.84375 C-169.10187938 225.89336014 -168.54305958 232.02634465 -168 238 C-166.30537483 243.57388762 -161.82744974 247.91844612 -157 251 C-151.93210123 253.09918414 -147.53401785 253.27481747 -142.14892578 253.22705078 C-141.27998184 253.22734283 -140.4110379 253.22763489 -139.51576233 253.22793579 C-136.65884226 253.22654838 -133.80218672 253.21101493 -130.9453125 253.1953125 C-128.95848737 253.19158028 -126.97166039 253.18873429 -124.98483276 253.18673706 C-119.7668343 253.17911709 -114.54894796 253.15948263 -109.33099365 253.1373291 C-104.00192786 253.11683543 -98.67284388 253.10772781 -93.34375 253.09765625 C-82.89578419 253.07623521 -72.44790144 253.04211901 -62 253 C-62.00666183 254.09723389 -62.01332367 255.19446777 -62.02018738 256.32495117 C-62.08109263 266.6825933 -62.12601784 277.04019893 -62.15543652 287.39797974 C-62.17106956 292.72258996 -62.19226479 298.04705522 -62.22631836 303.37158203 C-62.25899588 308.51333027 -62.27687077 313.65493935 -62.28463173 318.79678345 C-62.29016017 320.7551187 -62.30095584 322.71344664 -62.31719017 324.67172241 C-62.33907598 327.42193863 -62.34196227 330.17158523 -62.34057617 332.921875 C-62.351362 333.72532852 -62.36214783 334.52878204 -62.3732605 335.35658264 C-62.3381464 341.82645221 -61.1976361 347.45599734 -56.84375 352.49609375 C-56.0703125 353.13675781 -55.296875 353.77742187 -54.5 354.4375 C-53.7265625 355.09621094 -52.953125 355.75492188 -52.15625 356.43359375 C-47.10663986 360.10187938 -40.97365535 359.54305958 -35 359 C-29.42611238 357.30537483 -25.08155388 352.82744974 -22 348 C-19.90081586 342.93210123 -19.72518253 338.53401785 -19.77294922 333.14892578 C-19.77265717 332.27998184 -19.77236511 331.4110379 -19.77206421 330.51576233 C-19.77345162 327.65884226 -19.78898507 324.80218672 -19.8046875 321.9453125 C-19.80841972 319.95848737 -19.81126571 317.97166039 -19.81326294 315.98483276 C-19.82088291 310.7668343 -19.84051737 305.54894796 -19.8626709 300.33099365 C-19.88316457 295.00192786 -19.89227219 289.67284388 -19.90234375 284.34375 C-19.92376479 273.89578419 -19.95788099 263.44790144 -20 253 C-18.35414917 253.00999275 -18.35414917 253.00999275 -16.67504883 253.02018738 C-6.3174067 253.08109263 4.04019893 253.12601784 14.39797974 253.15543652 C19.72258996 253.17106956 25.04705522 253.19226479 30.37158203 253.22631836 C35.51333027 253.25899588 40.65493935 253.27687077 45.79678345 253.28463173 C47.7551187 253.29016017 49.71344664 253.30095584 51.67172241 253.31719017 C54.42193863 253.33907598 57.17158523 253.34196227 59.921875 253.34057617 C60.72532852 253.351362 61.52878204 253.36214783 62.35658264 253.3732605 C68.82645221 253.3381464 74.45599734 252.1976361 79.49609375 247.84375 C80.13675781 247.0703125 80.77742187 246.296875 81.4375 245.5 C82.09621094 244.7265625 82.75492188 243.953125 83.43359375 243.15625 C87.10187938 238.10663986 86.54305958 231.97365535 86 226 C84.30537483 220.42611238 79.82744974 216.08155388 75 213 C69.93210123 210.90081586 65.53401785 210.72518253 60.14892578 210.77294922 C59.27998184 210.77265717 58.4110379 210.77236511 57.51576233 210.77206421 C54.65884226 210.77345162 51.80218672 210.78898507 48.9453125 210.8046875 C46.95848737 210.80841972 44.97166039 210.81126571 42.98483276 210.81326294 C37.7668343 210.82088291 32.54894796 210.84051737 27.33099365 210.8626709 C22.00192786 210.88316457 16.67284388 210.89227219 11.34375 210.90234375 C0.89578419 210.92376479 -9.55209856 210.95788099 -20 211 C-19.99333817 209.90276611 -19.98667633 208.80553223 -19.97981262 207.67504883 C-19.91890737 197.3174067 -19.87398216 186.95980107 -19.84456348 176.60202026 C-19.82893044 171.27741004 -19.80773521 165.95294478 -19.77368164 160.62841797 C-19.74100412 155.48666973 -19.72312923 150.34506065 -19.71536827 145.20321655 C-19.70983983 143.2448813 -19.69904416 141.28655336 -19.68280983 139.32827759 C-19.66092402 136.57806137 -19.65803773 133.82841477 -19.65942383 131.078125 C-19.648638 130.27467148 -19.63785217 129.47121796 -19.6267395 128.64341736 C-19.6618536 122.17354779 -20.8023639 116.54400266 -25.15625 111.50390625 C-25.9296875 110.86324219 -26.703125 110.22257812 -27.5 109.5625 C-28.2734375 108.90378906 -29.046875 108.24507813 -29.84375 107.56640625 C-39.96001232 100.21745482 -51.62232691 105.79622454 -58.73828125 114.0234375 Z " fill="#000000" transform="translate(297,24)"/>
</svg>
